<?xml version="1.0" ?><svg id="Icons" viewBox="0 0 24 24" xmlns="http://www.w3.org/2000/svg"><defs><style>.cls-1{fill:#232323;}</style></defs><path class="cls-1" d="M12,0A12,12,0,1,0,24,12,12.013,12.013,0,0,0,12,0Zm0,22A10,10,0,1,1,22,12,10.011,10.011,0,0,1,12,22Z"/><path class="cls-1" d="M16.707,7.293a1,1,0,0,0-1.414,0L12,10.586,8.707,7.293A1,1,0,1,0,7.293,8.707L10.586,12,7.293,15.293a1,1,0,1,0,1.414,1.414L12,13.414l3.293,3.293a1,1,0,0,0,1.414-1.414L13.414,12l3.293-3.293A1,1,0,0,0,16.707,7.293Z"/></svg>