<?xml version="1.0" ?><svg style="enable-background:new 0 0 24 24;" version="1.1" viewBox="0 0 24 24" xml:space="preserve" xmlns="http://www.w3.org/2000/svg" xmlns:xlink="http://www.w3.org/1999/xlink"><style type="text/css">
	.st0{opacity:0.2;fill:none;stroke:#000000;stroke-width:5.000000e-02;stroke-miterlimit:10;}
</style><g id="grid_system"/><g id="_icons"><g><path d="M15.8,3.1C15.4,2.4,14.8,2,14,2h-4C9.2,2,8.6,2.4,8.2,3.1C6.4,3.4,5,5.1,5,7v11c0,2.2,1.8,4,4,4h6c2.2,0,4-1.8,4-4V7    C19,5.1,17.6,3.4,15.8,3.1z M10,4l4,0v0v1h-4V4z M17,18c0,1.1-0.9,2-2,2H9c-1.1,0-2-0.9-2-2V7c0-0.7,0.4-1.4,1-1.7    c0,0,0,0.1,0,0.1c0,0.1,0,0.1,0,0.2c0,0.1,0,0.1,0.1,0.2c0,0,0,0.1,0.1,0.1C8.2,5.9,8.3,6,8.3,6c0,0,0.1,0.1,0.1,0.1    c0,0.1,0.1,0.1,0.1,0.2c0,0,0.1,0.1,0.1,0.1c0.1,0.1,0.1,0.1,0.2,0.1c0,0,0.1,0.1,0.1,0.1c0.1,0,0.1,0.1,0.2,0.1    c0,0,0.1,0,0.1,0.1c0.1,0,0.2,0.1,0.2,0.1c0,0,0.1,0,0.1,0C9.7,7,9.9,7,10,7h4c0.1,0,0.3,0,0.4,0c0,0,0.1,0,0.1,0    c0.1,0,0.2,0,0.2-0.1c0,0,0.1,0,0.1-0.1c0.1,0,0.1-0.1,0.2-0.1c0,0,0.1-0.1,0.1-0.1c0.1,0,0.1-0.1,0.2-0.1c0,0,0.1-0.1,0.1-0.1    c0-0.1,0.1-0.1,0.1-0.2c0,0,0.1-0.1,0.1-0.1c0-0.1,0.1-0.1,0.1-0.2c0,0,0-0.1,0.1-0.1c0-0.1,0-0.1,0.1-0.2c0-0.1,0-0.1,0-0.2    c0,0,0-0.1,0-0.1c0.6,0.3,1,1,1,1.7V18z"/><path d="M12.9,11.4l-1.3,2l-0.3-0.3c-0.4-0.4-1-0.4-1.4,0s-0.4,1,0,1.4l1.1,1.1c0.2,0.2,0.4,0.3,0.7,0.3c0,0,0.1,0,0.1,0    c0.3,0,0.6-0.2,0.7-0.4l2-3c0.3-0.5,0.2-1.1-0.3-1.4C13.8,10.9,13.2,11,12.9,11.4z"/></g></g></svg>